<mxfile host="Electron" agent="Mozilla/5.0 (Windows NT 10.0; Win64; x64) AppleWebKit/537.36 (KHTML, like Gecko) draw.io/26.0.15 Chrome/132.0.6834.196 Electron/34.2.0 Safari/537.36" version="26.0.15">
  <diagram name="Page-1" id="YzE2w0wn6SuqHIf1ZsfR">
    <mxGraphModel dx="1114" dy="777" grid="0" gridSize="10" guides="1" tooltips="1" connect="1" arrows="1" fold="1" page="1" pageScale="1" pageWidth="1700" pageHeight="1100" math="0" shadow="0">
      <root>
        <mxCell id="0" />
        <mxCell id="1" parent="0" />
        <mxCell id="lWrEaUazHtXa9JwBghns-1" value="" style="whiteSpace=wrap;html=1;aspect=fixed;fillColor=#dae8fc;strokeColor=#6c8ebf;" vertex="1" parent="1">
          <mxGeometry x="675" y="317" width="406" height="406" as="geometry" />
        </mxCell>
        <mxCell id="lWrEaUazHtXa9JwBghns-2" value="" style="endArrow=classic;html=1;rounded=0;" edge="1" parent="1">
          <mxGeometry width="50" height="50" relative="1" as="geometry">
            <mxPoint x="484" y="500" as="sourcePoint" />
            <mxPoint x="675" y="500" as="targetPoint" />
          </mxGeometry>
        </mxCell>
        <mxCell id="lWrEaUazHtXa9JwBghns-3" value="" style="endArrow=classic;html=1;rounded=0;" edge="1" parent="1">
          <mxGeometry width="50" height="50" relative="1" as="geometry">
            <mxPoint x="1081" y="499" as="sourcePoint" />
            <mxPoint x="1272" y="499" as="targetPoint" />
          </mxGeometry>
        </mxCell>
        <mxCell id="lWrEaUazHtXa9JwBghns-4" value="" style="endArrow=none;html=1;rounded=0;" edge="1" parent="1">
          <mxGeometry width="50" height="50" relative="1" as="geometry">
            <mxPoint x="548" y="526" as="sourcePoint" />
            <mxPoint x="598" y="476" as="targetPoint" />
          </mxGeometry>
        </mxCell>
        <mxCell id="lWrEaUazHtXa9JwBghns-5" value="" style="endArrow=none;html=1;rounded=0;" edge="1" parent="1">
          <mxGeometry width="50" height="50" relative="1" as="geometry">
            <mxPoint x="1142" y="524" as="sourcePoint" />
            <mxPoint x="1192" y="474" as="targetPoint" />
          </mxGeometry>
        </mxCell>
        <mxCell id="lWrEaUazHtXa9JwBghns-6" value="&lt;font style=&quot;font-size: 18px;&quot;&gt;8&lt;/font&gt;" style="text;html=1;align=center;verticalAlign=middle;resizable=0;points=[];autosize=1;strokeColor=none;fillColor=none;" vertex="1" parent="1">
          <mxGeometry x="558" y="466" width="28" height="34" as="geometry" />
        </mxCell>
        <mxCell id="lWrEaUazHtXa9JwBghns-7" value="&lt;font style=&quot;font-size: 18px;&quot;&gt;12&lt;/font&gt;" style="text;html=1;align=center;verticalAlign=middle;resizable=0;points=[];autosize=1;strokeColor=none;fillColor=none;" vertex="1" parent="1">
          <mxGeometry x="1140" y="466" width="38" height="34" as="geometry" />
        </mxCell>
        <mxCell id="lWrEaUazHtXa9JwBghns-8" value="&lt;font style=&quot;font-size: 29px;&quot;&gt;&lt;b&gt;BCDConverter&lt;/b&gt;&lt;/font&gt;" style="text;html=1;align=center;verticalAlign=middle;whiteSpace=wrap;rounded=0;" vertex="1" parent="1">
          <mxGeometry x="855" y="493" width="60" height="30" as="geometry" />
        </mxCell>
        <mxCell id="lWrEaUazHtXa9JwBghns-9" value="&lt;font style=&quot;font-size: 22px;&quot;&gt;binary&lt;/font&gt;" style="text;html=1;align=center;verticalAlign=middle;resizable=0;points=[];autosize=1;strokeColor=none;fillColor=none;" vertex="1" parent="1">
          <mxGeometry x="403" y="480" width="78" height="38" as="geometry" />
        </mxCell>
        <mxCell id="lWrEaUazHtXa9JwBghns-10" value="&lt;font style=&quot;font-size: 22px;&quot;&gt;bcd&lt;/font&gt;" style="text;html=1;align=center;verticalAlign=middle;resizable=0;points=[];autosize=1;strokeColor=none;fillColor=none;" vertex="1" parent="1">
          <mxGeometry x="1271" y="480" width="53" height="38" as="geometry" />
        </mxCell>
      </root>
    </mxGraphModel>
  </diagram>
</mxfile>
